<svg width="263" height="82" viewBox="0 0 263 82" fill="none" xmlns="http://www.w3.org/2000/svg">
<g filter="url(#filter0_d_2_63)">
<rect x="4" y="3.35303" width="255" height="73" rx="20" fill="white" fill-opacity="0.9" shape-rendering="crispEdges"/>
</g>
<path d="M76.377 32.5757C76.291 33.4858 75.9551 34.1968 75.3691 34.7085C74.7832 35.2163 74.0039 35.4702 73.0312 35.4702C72.3516 35.4702 71.752 35.3101 71.2324 34.9897C70.7168 34.6655 70.3184 34.2065 70.0371 33.6128C69.7559 33.019 69.6094 32.3296 69.5977 31.5444V30.7476C69.5977 29.9429 69.7402 29.2339 70.0254 28.6206C70.3105 28.0073 70.7188 27.5347 71.25 27.2026C71.7852 26.8706 72.4023 26.7046 73.1016 26.7046C74.043 26.7046 74.8008 26.9604 75.375 27.4722C75.9492 27.9839 76.2832 28.7065 76.377 29.6401H74.9004C74.8301 29.0269 74.6504 28.5854 74.3613 28.3159C74.0762 28.0425 73.6562 27.9058 73.1016 27.9058C72.457 27.9058 71.9609 28.1421 71.6133 28.6147C71.2695 29.0835 71.0938 29.7729 71.0859 30.6831V31.439C71.0859 32.3608 71.25 33.064 71.5781 33.5483C71.9102 34.0327 72.3945 34.2749 73.0312 34.2749C73.6133 34.2749 74.0508 34.144 74.3438 33.8823C74.6367 33.6206 74.8223 33.1851 74.9004 32.5757H76.377ZM77.3027 32.1245C77.3027 31.5034 77.4258 30.9448 77.6719 30.4487C77.918 29.9487 78.2637 29.5659 78.709 29.3003C79.1543 29.0308 79.666 28.896 80.2441 28.896C81.0996 28.896 81.793 29.1714 82.3242 29.7222C82.8594 30.2729 83.1484 31.0034 83.1914 31.9136L83.1973 32.2476C83.1973 32.8726 83.0762 33.4312 82.834 33.9233C82.5957 34.4155 82.252 34.7964 81.8027 35.0659C81.3574 35.3354 80.8418 35.4702 80.2559 35.4702C79.3613 35.4702 78.6445 35.1733 78.1055 34.5796C77.5703 33.9819 77.3027 33.187 77.3027 32.1948V32.1245ZM78.7266 32.2476C78.7266 32.8999 78.8613 33.4116 79.1309 33.7827C79.4004 34.1499 79.7754 34.3335 80.2559 34.3335C80.7363 34.3335 81.1094 34.146 81.375 33.771C81.6445 33.396 81.7793 32.8472 81.7793 32.1245C81.7793 31.4839 81.6406 30.9761 81.3633 30.6011C81.0898 30.2261 80.7168 30.0386 80.2441 30.0386C79.7793 30.0386 79.4102 30.2241 79.1367 30.5952C78.8633 30.9624 78.7266 31.5132 78.7266 32.2476ZM85.7227 29.0132L85.7637 29.7456C86.2324 29.1792 86.8477 28.896 87.6094 28.896C88.9297 28.896 89.6016 29.6519 89.625 31.1636V35.353H88.2012V31.2456C88.2012 30.8433 88.1133 30.5464 87.9375 30.355C87.7656 30.1597 87.4824 30.062 87.0879 30.062C86.5137 30.062 86.0859 30.3218 85.8047 30.8413V35.353H84.3809V29.0132H85.7227ZM90.832 32.1362C90.832 31.1519 91.0625 30.3667 91.5234 29.7808C91.9883 29.1909 92.6035 28.896 93.3691 28.896C94.0918 28.896 94.6602 29.1479 95.0742 29.6519L95.1387 29.0132H96.4219V35.1597C96.4219 35.9917 96.1621 36.6479 95.6426 37.1284C95.127 37.6089 94.4297 37.8491 93.5508 37.8491C93.0859 37.8491 92.6309 37.7515 92.1855 37.5562C91.7441 37.3647 91.4082 37.1128 91.1777 36.8003L91.8516 35.9448C92.2891 36.4644 92.8281 36.7241 93.4688 36.7241C93.9414 36.7241 94.3145 36.5952 94.5879 36.3374C94.8613 36.0835 94.998 35.7085 94.998 35.2124V34.7847C94.5879 35.2417 94.041 35.4702 93.3574 35.4702C92.6152 35.4702 92.0078 35.1753 91.5352 34.5854C91.0664 33.9956 90.832 33.1792 90.832 32.1362ZM92.25 32.2593C92.25 32.896 92.3789 33.3979 92.6367 33.7651C92.8984 34.1284 93.2598 34.3101 93.7207 34.3101C94.2949 34.3101 94.7207 34.064 94.998 33.5718V30.7827C94.7285 30.3022 94.3066 30.062 93.7324 30.062C93.2637 30.062 92.8984 30.2476 92.6367 30.6187C92.3789 30.9897 92.25 31.5366 92.25 32.2593ZM101.209 30.314C101.021 30.2827 100.828 30.2671 100.629 30.2671C99.9766 30.2671 99.5371 30.5171 99.3105 31.0171V35.353H97.8867V29.0132H99.2461L99.2812 29.7222C99.625 29.1714 100.102 28.896 100.711 28.896C100.914 28.896 101.082 28.9233 101.215 28.978L101.209 30.314ZM105.721 35.353C105.658 35.2319 105.604 35.0347 105.557 34.7612C105.104 35.2339 104.549 35.4702 103.893 35.4702C103.256 35.4702 102.736 35.2886 102.334 34.9253C101.932 34.562 101.73 34.1128 101.73 33.5776C101.73 32.9019 101.98 32.3843 102.48 32.0249C102.984 31.6616 103.703 31.48 104.637 31.48H105.51V31.064C105.51 30.7358 105.418 30.4741 105.234 30.2788C105.051 30.0796 104.771 29.98 104.396 29.98C104.072 29.98 103.807 30.062 103.6 30.2261C103.393 30.3862 103.289 30.5913 103.289 30.8413H101.865C101.865 30.4937 101.98 30.1694 102.211 29.8687C102.441 29.564 102.754 29.3257 103.148 29.1538C103.547 28.9819 103.99 28.896 104.479 28.896C105.221 28.896 105.812 29.0835 106.254 29.4585C106.695 29.8296 106.922 30.353 106.934 31.0288V33.8882C106.934 34.4585 107.014 34.9136 107.174 35.2534V35.353H105.721ZM104.156 34.3276C104.438 34.3276 104.701 34.2593 104.947 34.1226C105.197 33.9858 105.385 33.8022 105.51 33.5718V32.3765H104.742C104.215 32.3765 103.818 32.4683 103.553 32.6519C103.287 32.8354 103.154 33.0952 103.154 33.4312C103.154 33.7046 103.244 33.9233 103.424 34.0874C103.607 34.2476 103.852 34.3276 104.156 34.3276ZM110.209 27.4722V29.0132H111.328V30.0679H110.209V33.6069C110.209 33.8491 110.256 34.0249 110.35 34.1343C110.447 34.2397 110.619 34.2925 110.865 34.2925C111.029 34.2925 111.195 34.2729 111.363 34.2339V35.3354C111.039 35.4253 110.727 35.4702 110.426 35.4702C109.332 35.4702 108.785 34.8667 108.785 33.6597V30.0679H107.742V29.0132H108.785V27.4722H110.209ZM115.975 33.6304C115.975 33.3765 115.869 33.1831 115.658 33.0503C115.451 32.9175 115.105 32.8003 114.621 32.6987C114.137 32.5972 113.732 32.4683 113.408 32.312C112.697 31.9683 112.342 31.4702 112.342 30.8179C112.342 30.271 112.572 29.814 113.033 29.4468C113.494 29.0796 114.08 28.896 114.791 28.896C115.549 28.896 116.16 29.0835 116.625 29.4585C117.094 29.8335 117.328 30.3198 117.328 30.9175H115.904C115.904 30.644 115.803 30.4175 115.6 30.2378C115.396 30.0542 115.127 29.9624 114.791 29.9624C114.479 29.9624 114.223 30.0347 114.023 30.1792C113.828 30.3237 113.73 30.5171 113.73 30.7593C113.73 30.978 113.822 31.1479 114.006 31.269C114.189 31.3901 114.561 31.5132 115.119 31.6382C115.678 31.7593 116.115 31.9058 116.432 32.0776C116.752 32.2456 116.988 32.4487 117.141 32.687C117.297 32.9253 117.375 33.2144 117.375 33.5542C117.375 34.1245 117.139 34.5874 116.666 34.9429C116.193 35.2944 115.574 35.4702 114.809 35.4702C114.289 35.4702 113.826 35.3765 113.42 35.189C113.014 35.0015 112.697 34.7437 112.471 34.4155C112.244 34.0874 112.131 33.7339 112.131 33.355H113.514C113.533 33.6909 113.66 33.9507 113.895 34.1343C114.129 34.314 114.439 34.4038 114.826 34.4038C115.201 34.4038 115.486 34.3335 115.682 34.1929C115.877 34.0483 115.975 33.8608 115.975 33.6304ZM120.129 32.8394H118.904L118.77 26.8218H120.27L120.129 32.8394ZM118.729 34.6792C118.729 34.4565 118.801 34.2729 118.945 34.1284C119.09 33.98 119.287 33.9058 119.537 33.9058C119.787 33.9058 119.984 33.98 120.129 34.1284C120.273 34.2729 120.346 34.4565 120.346 34.6792C120.346 34.894 120.275 35.0737 120.135 35.2183C119.994 35.3628 119.795 35.4351 119.537 35.4351C119.279 35.4351 119.08 35.3628 118.939 35.2183C118.799 35.0737 118.729 34.894 118.729 34.6792Z" fill="#F37D61"/>
<path d="M72.5918 51.105L74.8184 46.8218H76.0957L73.1543 52.1714V55.353H72.0293V52.1714L69.0879 46.8218H70.377L72.5918 51.105ZM76.3535 52.1245C76.3535 51.5034 76.4746 50.9448 76.7168 50.4487C76.9629 49.9526 77.3027 49.5698 77.7363 49.3003C78.1738 49.0308 78.6719 48.896 79.2305 48.896C80.0938 48.896 80.791 49.1948 81.3223 49.7925C81.8574 50.3901 82.125 51.1851 82.125 52.1772V52.2534C82.125 52.8706 82.0059 53.4253 81.7676 53.9175C81.5332 54.4058 81.1953 54.7866 80.7539 55.0601C80.3164 55.3335 79.8125 55.4702 79.2422 55.4702C78.3828 55.4702 77.6855 55.1714 77.1504 54.5737C76.6191 53.9761 76.3535 53.1851 76.3535 52.2007V52.1245ZM77.4434 52.2534C77.4434 52.9565 77.6055 53.521 77.9297 53.9468C78.2578 54.3726 78.6953 54.5854 79.2422 54.5854C79.793 54.5854 80.2305 54.3706 80.5547 53.9409C80.8789 53.5073 81.041 52.9019 81.041 52.1245C81.041 51.4292 80.875 50.8667 80.543 50.437C80.2148 50.0034 79.7773 49.7866 79.2305 49.7866C78.6953 49.7866 78.2637 49.9995 77.9355 50.4253C77.6074 50.8511 77.4434 51.4604 77.4434 52.2534ZM87.3984 54.7261C86.9766 55.2222 86.3574 55.4702 85.541 55.4702C84.8652 55.4702 84.3496 55.2749 83.9941 54.8843C83.6426 54.4897 83.4648 53.9077 83.4609 53.1382V49.0132H84.5449V53.1089C84.5449 54.0698 84.9355 54.5503 85.7168 54.5503C86.5449 54.5503 87.0957 54.2417 87.3691 53.6245V49.0132H88.4531V55.353H87.4219L87.3984 54.7261ZM93.1699 49.9858C93.0059 49.9585 92.8281 49.9448 92.6367 49.9448C91.9258 49.9448 91.4434 50.2476 91.1895 50.853V55.353H90.1055V49.0132H91.1602L91.1777 49.7456C91.5332 49.1792 92.0371 48.896 92.6895 48.896C92.9004 48.896 93.0605 48.9233 93.1699 48.978V49.9858ZM102.029 53.1265H98.4551L97.6523 55.353H96.4922L99.75 46.8218H100.734L103.998 55.353H102.844L102.029 53.1265ZM98.7949 52.2007H101.695L100.242 48.2104L98.7949 52.2007ZM104.713 52.1304C104.713 51.1577 104.943 50.3765 105.404 49.7866C105.865 49.1929 106.469 48.896 107.215 48.896C107.957 48.896 108.545 49.1499 108.979 49.6577V46.353H110.062V55.353H109.066L109.014 54.6733C108.58 55.2046 107.977 55.4702 107.203 55.4702C106.469 55.4702 105.869 55.1694 105.404 54.5679C104.943 53.9663 104.713 53.1812 104.713 52.2124V52.1304ZM105.797 52.2534C105.797 52.9722 105.945 53.5347 106.242 53.9409C106.539 54.3472 106.949 54.5503 107.473 54.5503C108.16 54.5503 108.662 54.2417 108.979 53.6245V50.7124C108.654 50.1147 108.156 49.8159 107.484 49.8159C106.953 49.8159 106.539 50.021 106.242 50.4312C105.945 50.8413 105.797 51.4487 105.797 52.2534ZM112.77 49.0132L112.799 49.7163C113.264 49.1694 113.891 48.896 114.68 48.896C115.566 48.896 116.17 49.2358 116.49 49.9155C116.701 49.6108 116.975 49.3647 117.311 49.1772C117.65 48.9897 118.051 48.896 118.512 48.896C119.902 48.896 120.609 49.6323 120.633 51.105V55.353H119.549V51.1694C119.549 50.7163 119.445 50.3784 119.238 50.1558C119.031 49.9292 118.684 49.8159 118.195 49.8159C117.793 49.8159 117.459 49.937 117.193 50.1792C116.928 50.4175 116.773 50.7397 116.73 51.146V55.353H115.641V51.1987C115.641 50.2769 115.189 49.8159 114.287 49.8159C113.576 49.8159 113.09 50.1187 112.828 50.7241V55.353H111.744V49.0132H112.77ZM123.451 55.353H122.367V49.0132H123.451V55.353ZM122.279 47.3315C122.279 47.1558 122.332 47.0073 122.438 46.8862C122.547 46.7651 122.707 46.7046 122.918 46.7046C123.129 46.7046 123.289 46.7651 123.398 46.8862C123.508 47.0073 123.562 47.1558 123.562 47.3315C123.562 47.5073 123.508 47.6538 123.398 47.771C123.289 47.8882 123.129 47.9468 122.918 47.9468C122.707 47.9468 122.547 47.8882 122.438 47.771C122.332 47.6538 122.279 47.5073 122.279 47.3315ZM128.883 53.6714C128.883 53.3784 128.771 53.1519 128.549 52.9917C128.33 52.8276 127.945 52.687 127.395 52.5698C126.848 52.4526 126.412 52.312 126.088 52.1479C125.768 51.9839 125.529 51.7886 125.373 51.562C125.221 51.3354 125.145 51.0659 125.145 50.7534C125.145 50.2339 125.363 49.7944 125.801 49.4351C126.242 49.0757 126.805 48.896 127.488 48.896C128.207 48.896 128.789 49.0815 129.234 49.4526C129.684 49.8237 129.908 50.2983 129.908 50.8765H128.818C128.818 50.5796 128.691 50.3237 128.438 50.1089C128.188 49.894 127.871 49.7866 127.488 49.7866C127.094 49.7866 126.785 49.8726 126.562 50.0444C126.34 50.2163 126.229 50.4409 126.229 50.7183C126.229 50.98 126.332 51.1772 126.539 51.3101C126.746 51.4429 127.119 51.5698 127.658 51.6909C128.201 51.812 128.641 51.9565 128.977 52.1245C129.312 52.2925 129.561 52.4956 129.721 52.7339C129.885 52.9683 129.967 53.2554 129.967 53.5952C129.967 54.1616 129.74 54.6167 129.287 54.9604C128.834 55.3003 128.246 55.4702 127.523 55.4702C127.016 55.4702 126.566 55.3804 126.176 55.2007C125.785 55.021 125.479 54.771 125.256 54.4507C125.037 54.1265 124.928 53.7769 124.928 53.4019H126.012C126.031 53.7651 126.176 54.0542 126.445 54.269C126.719 54.48 127.078 54.5854 127.523 54.5854C127.934 54.5854 128.262 54.5034 128.508 54.3394C128.758 54.1714 128.883 53.9487 128.883 53.6714ZM135.07 53.6714C135.07 53.3784 134.959 53.1519 134.736 52.9917C134.518 52.8276 134.133 52.687 133.582 52.5698C133.035 52.4526 132.6 52.312 132.275 52.1479C131.955 51.9839 131.717 51.7886 131.561 51.562C131.408 51.3354 131.332 51.0659 131.332 50.7534C131.332 50.2339 131.551 49.7944 131.988 49.4351C132.43 49.0757 132.992 48.896 133.676 48.896C134.395 48.896 134.977 49.0815 135.422 49.4526C135.871 49.8237 136.096 50.2983 136.096 50.8765H135.006C135.006 50.5796 134.879 50.3237 134.625 50.1089C134.375 49.894 134.059 49.7866 133.676 49.7866C133.281 49.7866 132.973 49.8726 132.75 50.0444C132.527 50.2163 132.416 50.4409 132.416 50.7183C132.416 50.98 132.52 51.1772 132.727 51.3101C132.934 51.4429 133.307 51.5698 133.846 51.6909C134.389 51.812 134.828 51.9565 135.164 52.1245C135.5 52.2925 135.748 52.4956 135.908 52.7339C136.072 52.9683 136.154 53.2554 136.154 53.5952C136.154 54.1616 135.928 54.6167 135.475 54.9604C135.021 55.3003 134.434 55.4702 133.711 55.4702C133.203 55.4702 132.754 55.3804 132.363 55.2007C131.973 55.021 131.666 54.771 131.443 54.4507C131.225 54.1265 131.115 53.7769 131.115 53.4019H132.199C132.219 53.7651 132.363 54.0542 132.633 54.269C132.906 54.48 133.266 54.5854 133.711 54.5854C134.121 54.5854 134.449 54.5034 134.695 54.3394C134.945 54.1714 135.07 53.9487 135.07 53.6714ZM138.744 55.353H137.66V49.0132H138.744V55.353ZM137.572 47.3315C137.572 47.1558 137.625 47.0073 137.73 46.8862C137.84 46.7651 138 46.7046 138.211 46.7046C138.422 46.7046 138.582 46.7651 138.691 46.8862C138.801 47.0073 138.855 47.1558 138.855 47.3315C138.855 47.5073 138.801 47.6538 138.691 47.771C138.582 47.8882 138.422 47.9468 138.211 47.9468C138 47.9468 137.84 47.8882 137.73 47.771C137.625 47.6538 137.572 47.5073 137.572 47.3315ZM140.197 52.1245C140.197 51.5034 140.318 50.9448 140.561 50.4487C140.807 49.9526 141.146 49.5698 141.58 49.3003C142.018 49.0308 142.516 48.896 143.074 48.896C143.938 48.896 144.635 49.1948 145.166 49.7925C145.701 50.3901 145.969 51.1851 145.969 52.1772V52.2534C145.969 52.8706 145.85 53.4253 145.611 53.9175C145.377 54.4058 145.039 54.7866 144.598 55.0601C144.16 55.3335 143.656 55.4702 143.086 55.4702C142.227 55.4702 141.529 55.1714 140.994 54.5737C140.463 53.9761 140.197 53.1851 140.197 52.2007V52.1245ZM141.287 52.2534C141.287 52.9565 141.449 53.521 141.773 53.9468C142.102 54.3726 142.539 54.5854 143.086 54.5854C143.637 54.5854 144.074 54.3706 144.398 53.9409C144.723 53.5073 144.885 52.9019 144.885 52.1245C144.885 51.4292 144.719 50.8667 144.387 50.437C144.059 50.0034 143.621 49.7866 143.074 49.7866C142.539 49.7866 142.107 49.9995 141.779 50.4253C141.451 50.8511 141.287 51.4604 141.287 52.2534ZM148.354 49.0132L148.389 49.8101C148.873 49.2007 149.506 48.896 150.287 48.896C151.627 48.896 152.303 49.6519 152.314 51.1636V55.353H151.23V51.1577C151.227 50.7007 151.121 50.3628 150.914 50.144C150.711 49.9253 150.393 49.8159 149.959 49.8159C149.607 49.8159 149.299 49.9097 149.033 50.0972C148.768 50.2847 148.561 50.5308 148.412 50.8354V55.353H147.328V49.0132H148.354ZM159.469 54.5854C159.855 54.5854 160.193 54.4683 160.482 54.2339C160.771 53.9995 160.932 53.7065 160.963 53.355H161.988C161.969 53.7183 161.844 54.064 161.613 54.3921C161.383 54.7202 161.074 54.9819 160.688 55.1772C160.305 55.3726 159.898 55.4702 159.469 55.4702C158.605 55.4702 157.918 55.1831 157.406 54.6089C156.898 54.0308 156.645 53.2417 156.645 52.2417V52.0601C156.645 51.4429 156.758 50.894 156.984 50.4136C157.211 49.9331 157.535 49.5601 157.957 49.2944C158.383 49.0288 158.885 48.896 159.463 48.896C160.174 48.896 160.764 49.1089 161.232 49.5347C161.705 49.9604 161.957 50.5132 161.988 51.1929H160.963C160.932 50.7827 160.775 50.4468 160.494 50.1851C160.217 49.9194 159.873 49.7866 159.463 49.7866C158.912 49.7866 158.484 49.9858 158.18 50.3843C157.879 50.7788 157.729 51.3511 157.729 52.1011V52.3062C157.729 53.0366 157.879 53.5991 158.18 53.9937C158.48 54.3882 158.91 54.5854 159.469 54.5854ZM162.92 52.1245C162.92 51.5034 163.041 50.9448 163.283 50.4487C163.529 49.9526 163.869 49.5698 164.303 49.3003C164.74 49.0308 165.238 48.896 165.797 48.896C166.66 48.896 167.357 49.1948 167.889 49.7925C168.424 50.3901 168.691 51.1851 168.691 52.1772V52.2534C168.691 52.8706 168.572 53.4253 168.334 53.9175C168.1 54.4058 167.762 54.7866 167.32 55.0601C166.883 55.3335 166.379 55.4702 165.809 55.4702C164.949 55.4702 164.252 55.1714 163.717 54.5737C163.186 53.9761 162.92 53.1851 162.92 52.2007V52.1245ZM164.01 52.2534C164.01 52.9565 164.172 53.521 164.496 53.9468C164.824 54.3726 165.262 54.5854 165.809 54.5854C166.359 54.5854 166.797 54.3706 167.121 53.9409C167.445 53.5073 167.607 52.9019 167.607 52.1245C167.607 51.4292 167.441 50.8667 167.109 50.437C166.781 50.0034 166.344 49.7866 165.797 49.7866C165.262 49.7866 164.83 49.9995 164.502 50.4253C164.174 50.8511 164.01 51.4604 164.01 52.2534ZM171.07 49.0132L171.1 49.7163C171.564 49.1694 172.191 48.896 172.98 48.896C173.867 48.896 174.471 49.2358 174.791 49.9155C175.002 49.6108 175.275 49.3647 175.611 49.1772C175.951 48.9897 176.352 48.896 176.812 48.896C178.203 48.896 178.91 49.6323 178.934 51.105V55.353H177.85V51.1694C177.85 50.7163 177.746 50.3784 177.539 50.1558C177.332 49.9292 176.984 49.8159 176.496 49.8159C176.094 49.8159 175.76 49.937 175.494 50.1792C175.229 50.4175 175.074 50.7397 175.031 51.146V55.353H173.941V51.1987C173.941 50.2769 173.49 49.8159 172.588 49.8159C171.877 49.8159 171.391 50.1187 171.129 50.7241V55.353H170.045V49.0132H171.07ZM185.93 52.2534C185.93 53.2183 185.709 53.9956 185.268 54.5854C184.826 55.1753 184.229 55.4702 183.475 55.4702C182.705 55.4702 182.1 55.2261 181.658 54.7378V57.7905H180.574V49.0132H181.564L181.617 49.7163C182.059 49.1694 182.672 48.896 183.457 48.896C184.219 48.896 184.82 49.1831 185.262 49.7573C185.707 50.3315 185.93 51.1304 185.93 52.1538V52.2534ZM184.846 52.1304C184.846 51.4155 184.693 50.8511 184.389 50.437C184.084 50.0229 183.666 49.8159 183.135 49.8159C182.479 49.8159 181.986 50.1069 181.658 50.689V53.7183C181.982 54.2964 182.479 54.5854 183.146 54.5854C183.666 54.5854 184.078 54.3804 184.383 53.9702C184.691 53.5562 184.846 52.9429 184.846 52.1304ZM188.49 55.353H187.406V46.353H188.49V55.353ZM192.861 55.4702C192.002 55.4702 191.303 55.189 190.764 54.6265C190.225 54.0601 189.955 53.3042 189.955 52.3589V52.1597C189.955 51.5308 190.074 50.9702 190.312 50.478C190.555 49.9819 190.891 49.5952 191.32 49.3179C191.754 49.0366 192.223 48.896 192.727 48.896C193.551 48.896 194.191 49.1675 194.648 49.7104C195.105 50.2534 195.334 51.0308 195.334 52.0425V52.4937H191.039C191.055 53.1187 191.236 53.6245 191.584 54.0112C191.936 54.394 192.381 54.5854 192.92 54.5854C193.303 54.5854 193.627 54.5073 193.893 54.3511C194.158 54.1948 194.391 53.9878 194.59 53.73L195.252 54.2456C194.721 55.062 193.924 55.4702 192.861 55.4702ZM192.727 49.7866C192.289 49.7866 191.922 49.9468 191.625 50.2671C191.328 50.5835 191.145 51.0288 191.074 51.603H194.25V51.521C194.219 50.9702 194.07 50.5444 193.805 50.2437C193.539 49.939 193.18 49.7866 192.727 49.7866ZM198.064 47.478V49.0132H199.248V49.8511H198.064V53.7827C198.064 54.0366 198.117 54.228 198.223 54.3569C198.328 54.4819 198.508 54.5444 198.762 54.5444C198.887 54.5444 199.059 54.521 199.277 54.4741V55.353C198.992 55.4312 198.715 55.4702 198.445 55.4702C197.961 55.4702 197.596 55.3237 197.35 55.0308C197.104 54.7378 196.98 54.3218 196.98 53.7827V49.8511H195.826V49.0132H196.98V47.478H198.064ZM203.15 55.4702C202.291 55.4702 201.592 55.189 201.053 54.6265C200.514 54.0601 200.244 53.3042 200.244 52.3589V52.1597C200.244 51.5308 200.363 50.9702 200.602 50.478C200.844 49.9819 201.18 49.5952 201.609 49.3179C202.043 49.0366 202.512 48.896 203.016 48.896C203.84 48.896 204.48 49.1675 204.938 49.7104C205.395 50.2534 205.623 51.0308 205.623 52.0425V52.4937H201.328C201.344 53.1187 201.525 53.6245 201.873 54.0112C202.225 54.394 202.67 54.5854 203.209 54.5854C203.592 54.5854 203.916 54.5073 204.182 54.3511C204.447 54.1948 204.68 53.9878 204.879 53.73L205.541 54.2456C205.01 55.062 204.213 55.4702 203.15 55.4702ZM203.016 49.7866C202.578 49.7866 202.211 49.9468 201.914 50.2671C201.617 50.5835 201.434 51.0288 201.363 51.603H204.539V51.521C204.508 50.9702 204.359 50.5444 204.094 50.2437C203.828 49.939 203.469 49.7866 203.016 49.7866ZM206.619 52.1304C206.619 51.1577 206.85 50.3765 207.311 49.7866C207.771 49.1929 208.375 48.896 209.121 48.896C209.863 48.896 210.451 49.1499 210.885 49.6577V46.353H211.969V55.353H210.973L210.92 54.6733C210.486 55.2046 209.883 55.4702 209.109 55.4702C208.375 55.4702 207.775 55.1694 207.311 54.5679C206.85 53.9663 206.619 53.1812 206.619 52.2124V52.1304ZM207.703 52.2534C207.703 52.9722 207.852 53.5347 208.148 53.9409C208.445 54.3472 208.855 54.5503 209.379 54.5503C210.066 54.5503 210.568 54.2417 210.885 53.6245V50.7124C210.561 50.1147 210.062 49.8159 209.391 49.8159C208.859 49.8159 208.445 50.021 208.148 50.4312C207.852 50.8413 207.703 51.4487 207.703 52.2534Z" fill="#2F374B"/>
<rect x="17" y="23.353" width="40" height="40" rx="10" fill="#F37D61"/>
<path d="M46 47.353C46 47.8835 45.7893 48.3922 45.4142 48.7672C45.0391 49.1423 44.5304 49.353 44 49.353H32L28 53.353V37.353C28 36.8226 28.2107 36.3139 28.5858 35.9388C28.9609 35.5637 29.4696 35.353 30 35.353H44C44.5304 35.353 45.0391 35.5637 45.4142 35.9388C45.7893 36.3139 46 36.8226 46 37.353V47.353Z" fill="white"/>
<circle cx="234.5" cy="26.853" r="11.5" fill="#F37D61"/>
<path d="M235 32.353L227 24.1025L229.668 21.353L235 26.854L240.332 21.353L243 24.1025L235 32.353Z" fill="white"/>
<defs>
<filter id="filter0_d_2_63" x="0" y="0.353027" width="263" height="81" filterUnits="userSpaceOnUse" color-interpolation-filters="sRGB">
<feFlood flood-opacity="0" result="BackgroundImageFix"/>
<feColorMatrix in="SourceAlpha" type="matrix" values="0 0 0 0 0 0 0 0 0 0 0 0 0 0 0 0 0 0 127 0" result="hardAlpha"/>
<feOffset dy="1"/>
<feGaussianBlur stdDeviation="2"/>
<feComposite in2="hardAlpha" operator="out"/>
<feColorMatrix type="matrix" values="0 0 0 0 0 0 0 0 0 0 0 0 0 0 0 0 0 0 0.25 0"/>
<feBlend mode="normal" in2="BackgroundImageFix" result="effect1_dropShadow_2_63"/>
<feBlend mode="normal" in="SourceGraphic" in2="effect1_dropShadow_2_63" result="shape"/>
</filter>
</defs>
</svg>
