<svg width="100" height="18" viewBox="0 0 100 18" fill="none" xmlns="http://www.w3.org/2000/svg">
<path d="M8.36914 11.9434V14H1.92676V11.9434H8.36914ZM2.7793 1.20312V14H0.142578V1.20312H2.7793ZM14.0996 14.1758C13.3613 14.1758 12.6992 14.0586 12.1133 13.8242C11.5273 13.584 11.0293 13.2529 10.6191 12.8311C10.2148 12.4092 9.9043 11.9199 9.6875 11.3633C9.4707 10.8008 9.3623 10.2031 9.3623 9.57031V9.21875C9.3623 8.49805 9.46484 7.83887 9.66992 7.24121C9.875 6.64355 10.168 6.125 10.5488 5.68555C10.9355 5.24609 11.4043 4.90918 11.9551 4.6748C12.5059 4.43457 13.127 4.31445 13.8184 4.31445C14.4922 4.31445 15.0898 4.42578 15.6113 4.64844C16.1328 4.87109 16.5693 5.1875 16.9209 5.59766C17.2783 6.00781 17.5479 6.5 17.7295 7.07422C17.9111 7.64258 18.002 8.27539 18.002 8.97266V10.0273H10.4434V8.33984H15.5146V8.14648C15.5146 7.79492 15.4502 7.48145 15.3213 7.20605C15.1982 6.9248 15.0107 6.70215 14.7588 6.53809C14.5068 6.37402 14.1846 6.29199 13.792 6.29199C13.458 6.29199 13.1709 6.36523 12.9307 6.51172C12.6904 6.6582 12.4941 6.86328 12.3418 7.12695C12.1953 7.39062 12.084 7.70117 12.0078 8.05859C11.9375 8.41016 11.9023 8.79688 11.9023 9.21875V9.57031C11.9023 9.95117 11.9551 10.3027 12.0605 10.625C12.1719 10.9473 12.3271 11.2256 12.5264 11.46C12.7314 11.6943 12.9775 11.876 13.2646 12.0049C13.5576 12.1338 13.8887 12.1982 14.2578 12.1982C14.7148 12.1982 15.1396 12.1104 15.5322 11.9346C15.9307 11.7529 16.2734 11.4805 16.5605 11.1172L17.791 12.4531C17.5918 12.7402 17.3193 13.0156 16.9736 13.2793C16.6338 13.543 16.2236 13.7598 15.7432 13.9297C15.2627 14.0938 14.7148 14.1758 14.0996 14.1758ZM24.5762 11.8555V7.61914C24.5762 7.31445 24.5264 7.05371 24.4268 6.83691C24.3271 6.61426 24.1719 6.44141 23.9609 6.31836C23.7559 6.19531 23.4893 6.13379 23.1611 6.13379C22.8799 6.13379 22.6367 6.18359 22.4316 6.2832C22.2266 6.37695 22.0684 6.51465 21.957 6.69629C21.8457 6.87207 21.79 7.08008 21.79 7.32031H19.2588C19.2588 6.91602 19.3525 6.53223 19.54 6.16895C19.7275 5.80566 20 5.48633 20.3574 5.21094C20.7148 4.92969 21.1396 4.70996 21.6318 4.55176C22.1299 4.39355 22.6865 4.31445 23.3018 4.31445C24.04 4.31445 24.6963 4.4375 25.2705 4.68359C25.8447 4.92969 26.2959 5.29883 26.624 5.79102C26.958 6.2832 27.125 6.89844 27.125 7.63672V11.7061C27.125 12.2275 27.1572 12.6553 27.2217 12.9893C27.2861 13.3174 27.3799 13.6045 27.5029 13.8506V14H24.9453C24.8223 13.7422 24.7285 13.4199 24.6641 13.0332C24.6055 12.6406 24.5762 12.248 24.5762 11.8555ZM24.9102 8.20801L24.9277 9.64062H23.5127C23.1787 9.64062 22.8887 9.67871 22.6426 9.75488C22.3965 9.83105 22.1943 9.93945 22.0361 10.0801C21.8779 10.2148 21.7607 10.373 21.6846 10.5547C21.6143 10.7363 21.5791 10.9355 21.5791 11.1523C21.5791 11.3691 21.6289 11.5654 21.7285 11.7412C21.8281 11.9111 21.9717 12.0459 22.1592 12.1455C22.3467 12.2393 22.5664 12.2861 22.8184 12.2861C23.1992 12.2861 23.5303 12.21 23.8115 12.0576C24.0928 11.9053 24.3096 11.7178 24.4619 11.4951C24.6201 11.2725 24.7021 11.0615 24.708 10.8623L25.376 11.9346C25.2822 12.1748 25.1533 12.4238 24.9893 12.6816C24.8311 12.9395 24.6289 13.1826 24.3828 13.4111C24.1367 13.6338 23.8408 13.8184 23.4951 13.9648C23.1494 14.1055 22.7393 14.1758 22.2646 14.1758C21.6611 14.1758 21.1133 14.0557 20.6211 13.8154C20.1348 13.5693 19.748 13.2324 19.4609 12.8047C19.1797 12.3711 19.0391 11.8789 19.0391 11.3281C19.0391 10.8301 19.1328 10.3877 19.3203 10.001C19.5078 9.61426 19.7832 9.28906 20.1465 9.02539C20.5156 8.75586 20.9756 8.55371 21.5264 8.41895C22.0771 8.27832 22.7158 8.20801 23.4424 8.20801H24.9102ZM31.6074 6.56445V14H29.0762V4.49023H31.458L31.6074 6.56445ZM34.4727 4.42871L34.4287 6.77539C34.3057 6.75781 34.1562 6.74316 33.9805 6.73145C33.8105 6.71387 33.6553 6.70508 33.5146 6.70508C33.1572 6.70508 32.8467 6.75195 32.583 6.8457C32.3252 6.93359 32.1084 7.06543 31.9326 7.24121C31.7627 7.41699 31.6338 7.63086 31.5459 7.88281C31.4639 8.13477 31.417 8.42188 31.4053 8.74414L30.8955 8.58594C30.8955 7.9707 30.957 7.40527 31.0801 6.88965C31.2031 6.36816 31.3818 5.91406 31.6162 5.52734C31.8564 5.14062 32.1494 4.8418 32.4951 4.63086C32.8408 4.41992 33.2363 4.31445 33.6816 4.31445C33.8223 4.31445 33.9658 4.32617 34.1123 4.34961C34.2588 4.36719 34.3789 4.39355 34.4727 4.42871ZM38.1465 6.52051V14H35.6152V4.49023H37.9883L38.1465 6.52051ZM37.7773 8.91113H37.0918C37.0918 8.20801 37.1826 7.5752 37.3643 7.0127C37.5459 6.44434 37.8008 5.96094 38.1289 5.5625C38.457 5.1582 38.8467 4.85059 39.2979 4.63965C39.7549 4.42285 40.2646 4.31445 40.8271 4.31445C41.2725 4.31445 41.6797 4.37891 42.0488 4.50781C42.418 4.63672 42.7344 4.8418 42.998 5.12305C43.2676 5.4043 43.4727 5.77637 43.6133 6.23926C43.7598 6.70215 43.833 7.26758 43.833 7.93555V14H41.2842V7.92676C41.2842 7.50488 41.2256 7.17676 41.1084 6.94238C40.9912 6.70801 40.8184 6.54395 40.5898 6.4502C40.3672 6.35059 40.0918 6.30078 39.7637 6.30078C39.4238 6.30078 39.1279 6.36816 38.876 6.50293C38.6299 6.6377 38.4248 6.8252 38.2607 7.06543C38.1025 7.2998 37.9824 7.5752 37.9004 7.8916C37.8184 8.20801 37.7773 8.54785 37.7773 8.91113Z" fill="#26C42D"/>
<path d="M54.5029 11.9434V14H47.6914V11.9434H54.5029ZM48.5527 1.20312V14H45.916V1.20312H48.5527ZM53.6152 6.41504V8.41895H47.6914V6.41504H53.6152ZM54.4941 1.20312V3.26855H47.6914V1.20312H54.4941ZM58.3613 6.52051V14H55.8301V4.49023H58.2031L58.3613 6.52051ZM57.9922 8.91113H57.3066C57.3066 8.20801 57.3975 7.5752 57.5791 7.0127C57.7607 6.44434 58.0156 5.96094 58.3438 5.5625C58.6719 5.1582 59.0615 4.85059 59.5127 4.63965C59.9697 4.42285 60.4795 4.31445 61.042 4.31445C61.4873 4.31445 61.8945 4.37891 62.2637 4.50781C62.6328 4.63672 62.9492 4.8418 63.2129 5.12305C63.4824 5.4043 63.6875 5.77637 63.8281 6.23926C63.9746 6.70215 64.0479 7.26758 64.0479 7.93555V14H61.499V7.92676C61.499 7.50488 61.4404 7.17676 61.3232 6.94238C61.2061 6.70801 61.0332 6.54395 60.8047 6.4502C60.582 6.35059 60.3066 6.30078 59.9785 6.30078C59.6387 6.30078 59.3428 6.36816 59.0908 6.50293C58.8447 6.6377 58.6396 6.8252 58.4756 7.06543C58.3174 7.2998 58.1973 7.5752 58.1152 7.8916C58.0332 8.20801 57.9922 8.54785 57.9922 8.91113ZM71.9932 4.49023H74.2871V13.6836C74.2871 14.5508 74.0938 15.2861 73.707 15.8896C73.3262 16.499 72.793 16.959 72.1074 17.2695C71.4219 17.5859 70.625 17.7441 69.7168 17.7441C69.3184 17.7441 68.8965 17.6914 68.4512 17.5859C68.0117 17.4805 67.5898 17.3164 67.1855 17.0938C66.7871 16.8711 66.4531 16.5898 66.1836 16.25L67.2998 14.7559C67.5928 15.0957 67.9326 15.3594 68.3193 15.5469C68.7061 15.7402 69.1338 15.8369 69.6025 15.8369C70.0596 15.8369 70.4463 15.752 70.7627 15.582C71.0791 15.418 71.3223 15.1748 71.4922 14.8525C71.6621 14.5361 71.7471 14.1523 71.7471 13.7012V6.6875L71.9932 4.49023ZM65.5947 9.35938V9.1748C65.5947 8.44824 65.6826 7.78906 65.8584 7.19727C66.04 6.59961 66.2949 6.08691 66.623 5.65918C66.957 5.23145 67.3613 4.90039 67.8359 4.66602C68.3105 4.43164 68.8467 4.31445 69.4443 4.31445C70.0771 4.31445 70.6074 4.43164 71.0352 4.66602C71.4629 4.90039 71.8145 5.23438 72.0898 5.66797C72.3652 6.0957 72.5791 6.60254 72.7314 7.18848C72.8896 7.76855 73.0127 8.4043 73.1006 9.0957V9.5C73.0127 10.1621 72.8809 10.7773 72.7051 11.3457C72.5293 11.9141 72.2979 12.4121 72.0107 12.8398C71.7236 13.2617 71.3662 13.5898 70.9385 13.8242C70.5166 14.0586 70.0127 14.1758 69.4268 14.1758C68.8408 14.1758 68.3105 14.0557 67.8359 13.8154C67.3672 13.5752 66.9658 13.2383 66.6318 12.8047C66.2979 12.3711 66.04 11.8613 65.8584 11.2754C65.6826 10.6895 65.5947 10.0508 65.5947 9.35938ZM68.126 9.1748V9.35938C68.126 9.75195 68.1641 10.1182 68.2402 10.458C68.3164 10.7979 68.4336 11.0996 68.5918 11.3633C68.7559 11.6211 68.958 11.8232 69.1982 11.9697C69.4443 12.1104 69.7344 12.1807 70.0684 12.1807C70.5312 12.1807 70.9092 12.084 71.2021 11.8906C71.4951 11.6914 71.7148 11.4189 71.8613 11.0732C72.0078 10.7275 72.0928 10.3291 72.1162 9.87793V8.72656C72.1045 8.35742 72.0547 8.02637 71.9668 7.7334C71.8789 7.43457 71.7559 7.17969 71.5977 6.96875C71.4395 6.75781 71.2344 6.59375 70.9824 6.47656C70.7305 6.35938 70.4316 6.30078 70.0859 6.30078C69.752 6.30078 69.4619 6.37695 69.2158 6.5293C68.9756 6.67578 68.7734 6.87793 68.6094 7.13574C68.4512 7.39355 68.3311 7.69824 68.249 8.0498C68.167 8.39551 68.126 8.77051 68.126 9.1748ZM78.9277 4.49023V14H76.3877V4.49023H78.9277ZM76.2295 2.01172C76.2295 1.64258 76.3584 1.33789 76.6162 1.09766C76.874 0.857422 77.2197 0.737305 77.6533 0.737305C78.0811 0.737305 78.4238 0.857422 78.6816 1.09766C78.9453 1.33789 79.0771 1.64258 79.0771 2.01172C79.0771 2.38086 78.9453 2.68555 78.6816 2.92578C78.4238 3.16602 78.0811 3.28613 77.6533 3.28613C77.2197 3.28613 76.874 3.16602 76.6162 2.92578C76.3584 2.68555 76.2295 2.38086 76.2295 2.01172ZM83.498 6.52051V14H80.9668V4.49023H83.3398L83.498 6.52051ZM83.1289 8.91113H82.4434C82.4434 8.20801 82.5342 7.5752 82.7158 7.0127C82.8975 6.44434 83.1523 5.96094 83.4805 5.5625C83.8086 5.1582 84.1982 4.85059 84.6494 4.63965C85.1064 4.42285 85.6162 4.31445 86.1787 4.31445C86.624 4.31445 87.0312 4.37891 87.4004 4.50781C87.7695 4.63672 88.0859 4.8418 88.3496 5.12305C88.6191 5.4043 88.8242 5.77637 88.9648 6.23926C89.1113 6.70215 89.1846 7.26758 89.1846 7.93555V14H86.6357V7.92676C86.6357 7.50488 86.5771 7.17676 86.46 6.94238C86.3428 6.70801 86.1699 6.54395 85.9414 6.4502C85.7188 6.35059 85.4434 6.30078 85.1152 6.30078C84.7754 6.30078 84.4795 6.36816 84.2275 6.50293C83.9814 6.6377 83.7764 6.8252 83.6123 7.06543C83.4541 7.2998 83.334 7.5752 83.252 7.8916C83.1699 8.20801 83.1289 8.54785 83.1289 8.91113ZM95.4863 14.1758C94.748 14.1758 94.0859 14.0586 93.5 13.8242C92.9141 13.584 92.416 13.2529 92.0059 12.8311C91.6016 12.4092 91.291 11.9199 91.0742 11.3633C90.8574 10.8008 90.749 10.2031 90.749 9.57031V9.21875C90.749 8.49805 90.8516 7.83887 91.0566 7.24121C91.2617 6.64355 91.5547 6.125 91.9355 5.68555C92.3223 5.24609 92.791 4.90918 93.3418 4.6748C93.8926 4.43457 94.5137 4.31445 95.2051 4.31445C95.8789 4.31445 96.4766 4.42578 96.998 4.64844C97.5195 4.87109 97.9561 5.1875 98.3076 5.59766C98.665 6.00781 98.9346 6.5 99.1162 7.07422C99.2979 7.64258 99.3887 8.27539 99.3887 8.97266V10.0273H91.8301V8.33984H96.9014V8.14648C96.9014 7.79492 96.8369 7.48145 96.708 7.20605C96.585 6.9248 96.3975 6.70215 96.1455 6.53809C95.8936 6.37402 95.5713 6.29199 95.1787 6.29199C94.8447 6.29199 94.5576 6.36523 94.3174 6.51172C94.0771 6.6582 93.8809 6.86328 93.7285 7.12695C93.582 7.39062 93.4707 7.70117 93.3945 8.05859C93.3242 8.41016 93.2891 8.79688 93.2891 9.21875V9.57031C93.2891 9.95117 93.3418 10.3027 93.4473 10.625C93.5586 10.9473 93.7139 11.2256 93.9131 11.46C94.1182 11.6943 94.3643 11.876 94.6514 12.0049C94.9443 12.1338 95.2754 12.1982 95.6445 12.1982C96.1016 12.1982 96.5264 12.1104 96.9189 11.9346C97.3174 11.7529 97.6602 11.4805 97.9473 11.1172L99.1777 12.4531C98.9785 12.7402 98.7061 13.0156 98.3604 13.2793C98.0205 13.543 97.6104 13.7598 97.1299 13.9297C96.6494 14.0938 96.1016 14.1758 95.4863 14.1758Z" fill="#FE7558"/>
</svg>

