<svg width="19" height="17" viewBox="0 0 19 17" fill="none" xmlns="http://www.w3.org/2000/svg">
<path d="M18.2633 6.06036L12.7525 5.30362L10.289 0.584773C10.2217 0.455574 10.111 0.350984 9.97428 0.28741C9.63135 0.127449 9.21461 0.26075 9.04315 0.584773L6.57967 5.30362L1.06885 6.06036C0.916917 6.08087 0.778007 6.14854 0.671654 6.25108C0.543079 6.37595 0.472229 6.54393 0.47467 6.71813C0.477112 6.89233 0.552647 7.05848 0.684677 7.18009L4.67183 10.853L3.72984 16.0395C3.70775 16.1601 3.72188 16.2842 3.77063 16.3976C3.81938 16.5111 3.90079 16.6094 4.00564 16.6813C4.11049 16.7533 4.23458 16.796 4.36384 16.8047C4.49309 16.8134 4.62235 16.7877 4.73694 16.7306L9.66607 14.2819L14.5952 16.7306C14.7298 16.7983 14.886 16.8208 15.0358 16.7962C15.4135 16.7347 15.6674 16.3963 15.6023 16.0395L14.6603 10.853L18.6475 7.18009C18.756 7.0796 18.8276 6.94835 18.8493 6.80479C18.9079 6.44591 18.6431 6.11368 18.2633 6.06036Z" fill="#FF5D02"/>
</svg>
