<svg width="577" height="355" viewBox="0 0 577 355" fill="none" xmlns="http://www.w3.org/2000/svg">
<rect y="0.486389" width="576.231" height="354.22" rx="10" fill="#289886"/>
<circle cx="39.2895" cy="249.314" r="5.61264" fill="white" fill-opacity="0.8"/>
<circle cx="69.2226" cy="249.314" r="5.61264" fill="white" fill-opacity="0.8"/>
<circle cx="39.2887" cy="289.226" r="5.61264" fill="white" fill-opacity="0.8"/>
<circle cx="69.2226" cy="289.226" r="5.61264" fill="white" fill-opacity="0.8"/>
<circle cx="39.2887" cy="269.27" r="5.61264" fill="white" fill-opacity="0.8"/>
<circle cx="69.2226" cy="269.27" r="5.61264" fill="white" fill-opacity="0.8"/>
<circle cx="39.2887" cy="304.193" r="5.61264" fill="white" fill-opacity="0.8"/>
<circle cx="69.2226" cy="304.193" r="5.61264" fill="white" fill-opacity="0.8"/>
<circle cx="54.2567" cy="249.314" r="5.61264" fill="white" fill-opacity="0.8"/>
<circle cx="54.2567" cy="289.226" r="5.61264" fill="white" fill-opacity="0.8"/>
<circle cx="54.2567" cy="269.27" r="5.61264" fill="white" fill-opacity="0.8"/>
<circle cx="54.2567" cy="304.193" r="5.61264" fill="white" fill-opacity="0.8"/>
<circle cx="145.304" cy="304.193" r="5.61264" transform="rotate(90 145.304 304.193)" fill="white" fill-opacity="0.8"/>
<circle cx="145.304" cy="334.127" r="5.61264" transform="rotate(90 145.304 334.127)" fill="white" fill-opacity="0.8"/>
<circle cx="105.394" cy="304.193" r="5.61264" transform="rotate(90 105.394 304.193)" fill="white" fill-opacity="0.8"/>
<circle cx="105.394" cy="334.127" r="5.61264" transform="rotate(90 105.394 334.127)" fill="white" fill-opacity="0.8"/>
<circle cx="55.5027" cy="334.127" r="5.61264" transform="rotate(90 55.5027 334.127)" fill="white" fill-opacity="0.8"/>
<circle cx="125.349" cy="304.193" r="5.61264" transform="rotate(90 125.349 304.193)" fill="white" fill-opacity="0.8"/>
<circle cx="125.349" cy="334.127" r="5.61264" transform="rotate(90 125.349 334.127)" fill="white" fill-opacity="0.8"/>
<circle cx="69.2223" cy="334.127" r="5.61264" transform="rotate(90 69.2223 334.127)" fill="white" fill-opacity="0.8"/>
<circle cx="85.4366" cy="304.193" r="5.61264" transform="rotate(90 85.4366 304.193)" fill="white" fill-opacity="0.8"/>
<circle cx="85.4366" cy="334.127" r="5.61264" transform="rotate(90 85.4366 334.127)" fill="white" fill-opacity="0.8"/>
<circle cx="39.2884" cy="334.127" r="5.61264" transform="rotate(90 39.2884 334.127)" fill="white" fill-opacity="0.8"/>
<circle cx="145.304" cy="319.16" r="5.61264" transform="rotate(90 145.304 319.16)" fill="white" fill-opacity="0.8"/>
<circle cx="105.394" cy="319.16" r="5.61264" transform="rotate(90 105.394 319.16)" fill="white" fill-opacity="0.8"/>
<circle cx="55.5027" cy="319.16" r="5.61264" transform="rotate(90 55.5027 319.16)" fill="white" fill-opacity="0.8"/>
<circle cx="125.349" cy="319.16" r="5.61264" transform="rotate(90 125.349 319.16)" fill="white" fill-opacity="0.8"/>
<circle cx="69.2223" cy="319.16" r="5.61264" transform="rotate(90 69.2223 319.16)" fill="white" fill-opacity="0.8"/>
<circle cx="85.4366" cy="319.16" r="5.61264" transform="rotate(90 85.4366 319.16)" fill="white" fill-opacity="0.8"/>
<circle cx="39.2884" cy="319.16" r="5.61264" transform="rotate(90 39.2884 319.16)" fill="white" fill-opacity="0.8"/>
</svg>
